<?xml version="1.0" standalone="no"?><!DOCTYPE svg PUBLIC "-//W3C//DTD SVG 1.1//EN" "http://www.w3.org/Graphics/SVG/1.1/DTD/svg11.dtd"><svg t="1604976589547" class="icon" viewBox="0 0 1024 1024" version="1.1" xmlns="http://www.w3.org/2000/svg" p-id="5003" xmlns:xlink="http://www.w3.org/1999/xlink" width="200" height="200"><defs><style type="text/css"></style></defs><path d="M221.2 342.6m-60.6 0a60.6 60.6 0 1 0 121.2 0 60.6 60.6 0 1 0-121.2 0Z" fill="#9DA4AE" p-id="5004"></path><path d="M847.2 561.1c-78.7 0-142.6 64-142.6 142.6s64 142.6 142.6 142.6 142.6-64 142.6-142.6-64-142.6-142.6-142.6z m0 243.2c-9.7 0-17.6-7.9-17.6-17.6 0-9.7 7.9-17.6 17.6-17.6 9.7 0 17.6 7.9 17.6 17.6 0 9.7-7.9 17.6-17.6 17.6z m17.6-72.2c0 9.7-7.9 17.6-17.6 17.6-9.7 0-17.6-7.9-17.6-17.6V618.8c0-9.7 7.9-17.6 17.6-17.6 9.7 0 17.6 7.9 17.6 17.6v113.3z" fill="#9DA4AE" p-id="5005"></path><path d="M696.3 794.6h-595V228.9h821.8v315.9c13.4 6.4 25.8 14.5 37.1 23.9v-377h-896v639.9h662c-11.5-10.8-21.6-23.3-29.9-37z" fill="#9DA4AE" p-id="5006"></path><path d="M801.9 533.5L629.3 371.3 360.8 625.4l-99.6-97-104.4 116.5v97.5h518.5c-2.8-12.5-4.3-25.4-4.3-38.7 0-81.4 55.6-150.1 130.9-170.2z" fill="#9DA4AE" p-id="5007"></path></svg>